<mxfile host="Electron" modified="2024-04-22T17:03:21.383Z" agent="Mozilla/5.0 (Macintosh; Intel Mac OS X 10_15_7) AppleWebKit/537.36 (KHTML, like Gecko) draw.io/24.2.5 Chrome/120.0.6099.109 Electron/28.1.0 Safari/537.36" etag="fs8BsY9iUxrw6axLlRPW" version="24.2.5" type="device">
  <diagram name="Pagina-1" id="aQeGrQ7d98ZQ-CDghlTA">
    <mxGraphModel dx="677" dy="910" grid="1" gridSize="10" guides="1" tooltips="1" connect="1" arrows="1" fold="1" page="0" pageScale="1" pageWidth="827" pageHeight="1169" math="0" shadow="0">
      <root>
        <mxCell id="0" />
        <mxCell id="1" parent="0" />
        <mxCell id="fQAuhInOKur0-kVgkFMw-49" value="&lt;b&gt;Matchmaker&lt;/b&gt;" style="html=1;dropTarget=0;whiteSpace=wrap;labelPosition=center;verticalLabelPosition=middle;align=center;verticalAlign=top;" vertex="1" parent="1">
          <mxGeometry x="450" y="370" width="270" height="110" as="geometry" />
        </mxCell>
        <mxCell id="fQAuhInOKur0-kVgkFMw-50" value="" style="shape=module;jettyWidth=8;jettyHeight=4;" vertex="1" parent="fQAuhInOKur0-kVgkFMw-49">
          <mxGeometry x="1" width="20" height="20" relative="1" as="geometry">
            <mxPoint x="-27" y="7" as="offset" />
          </mxGeometry>
        </mxCell>
        <mxCell id="fQAuhInOKur0-kVgkFMw-20" value="&lt;b&gt;User Interface&lt;/b&gt;" style="html=1;dropTarget=0;whiteSpace=wrap;verticalAlign=top;" vertex="1" parent="1">
          <mxGeometry x="240" y="60" width="400" height="190" as="geometry" />
        </mxCell>
        <mxCell id="fQAuhInOKur0-kVgkFMw-21" value="" style="shape=module;jettyWidth=8;jettyHeight=4;" vertex="1" parent="fQAuhInOKur0-kVgkFMw-20">
          <mxGeometry x="1" width="20" height="20" relative="1" as="geometry">
            <mxPoint x="-27" y="7" as="offset" />
          </mxGeometry>
        </mxCell>
        <mxCell id="fQAuhInOKur0-kVgkFMw-3" value="&lt;div&gt;&lt;b&gt;UI Anziani&lt;/b&gt;&lt;/div&gt;" style="html=1;dropTarget=0;whiteSpace=wrap;rounded=0;" vertex="1" parent="1">
          <mxGeometry x="380" y="170" width="120" height="70" as="geometry" />
        </mxCell>
        <mxCell id="fQAuhInOKur0-kVgkFMw-4" value="" style="shape=module;jettyWidth=8;jettyHeight=4;rounded=0;" vertex="1" parent="fQAuhInOKur0-kVgkFMw-3">
          <mxGeometry x="1" width="20" height="20" relative="1" as="geometry">
            <mxPoint x="-27" y="7" as="offset" />
          </mxGeometry>
        </mxCell>
        <mxCell id="fQAuhInOKur0-kVgkFMw-5" value="&lt;div&gt;&lt;b&gt;UI Volontari&lt;/b&gt;&lt;/div&gt;" style="html=1;dropTarget=0;whiteSpace=wrap;rounded=0;" vertex="1" parent="1">
          <mxGeometry x="510" y="170" width="120" height="70" as="geometry" />
        </mxCell>
        <mxCell id="fQAuhInOKur0-kVgkFMw-6" value="" style="shape=module;jettyWidth=8;jettyHeight=4;rounded=0;" vertex="1" parent="fQAuhInOKur0-kVgkFMw-5">
          <mxGeometry x="1" width="20" height="20" relative="1" as="geometry">
            <mxPoint x="-27" y="7" as="offset" />
          </mxGeometry>
        </mxCell>
        <mxCell id="fQAuhInOKur0-kVgkFMw-7" value="&lt;div&gt;&lt;b&gt;UI Associazioni&lt;/b&gt;&lt;/div&gt;" style="html=1;dropTarget=0;whiteSpace=wrap;rounded=0;" vertex="1" parent="1">
          <mxGeometry x="250" y="170" width="120" height="70" as="geometry" />
        </mxCell>
        <mxCell id="fQAuhInOKur0-kVgkFMw-8" value="" style="shape=module;jettyWidth=8;jettyHeight=4;rounded=0;" vertex="1" parent="fQAuhInOKur0-kVgkFMw-7">
          <mxGeometry x="1" width="20" height="20" relative="1" as="geometry">
            <mxPoint x="-27" y="7" as="offset" />
          </mxGeometry>
        </mxCell>
        <mxCell id="fQAuhInOKur0-kVgkFMw-9" value="&lt;div&gt;&lt;b&gt;UI Parenti&lt;/b&gt;&lt;/div&gt;" style="html=1;dropTarget=0;whiteSpace=wrap;rounded=0;" vertex="1" parent="1">
          <mxGeometry x="310" y="90" width="120" height="70" as="geometry" />
        </mxCell>
        <mxCell id="fQAuhInOKur0-kVgkFMw-10" value="" style="shape=module;jettyWidth=8;jettyHeight=4;rounded=0;" vertex="1" parent="fQAuhInOKur0-kVgkFMw-9">
          <mxGeometry x="1" width="20" height="20" relative="1" as="geometry">
            <mxPoint x="-27" y="7" as="offset" />
          </mxGeometry>
        </mxCell>
        <mxCell id="fQAuhInOKur0-kVgkFMw-11" value="&lt;div&gt;&lt;b&gt;UI Amministrazione&lt;/b&gt;&lt;/div&gt;" style="html=1;dropTarget=0;whiteSpace=wrap;rounded=0;" vertex="1" parent="1">
          <mxGeometry x="450" y="90" width="120" height="70" as="geometry" />
        </mxCell>
        <mxCell id="fQAuhInOKur0-kVgkFMw-12" value="" style="shape=module;jettyWidth=8;jettyHeight=4;rounded=0;" vertex="1" parent="fQAuhInOKur0-kVgkFMw-11">
          <mxGeometry x="1" width="20" height="20" relative="1" as="geometry">
            <mxPoint x="-27" y="7" as="offset" />
          </mxGeometry>
        </mxCell>
        <mxCell id="fQAuhInOKur0-kVgkFMw-15" value="" style="shape=umlActor;verticalLabelPosition=bottom;verticalAlign=top;html=1;" vertex="1" parent="1">
          <mxGeometry x="150" y="120" width="30" height="60" as="geometry" />
        </mxCell>
        <mxCell id="fQAuhInOKur0-kVgkFMw-18" value="" style="endArrow=open;endSize=12;dashed=1;html=1;rounded=0;fontSize=12;curved=1;exitX=0.5;exitY=0.5;exitDx=0;exitDy=0;exitPerimeter=0;entryX=0;entryY=0;entryDx=0;entryDy=60.5;entryPerimeter=0;" edge="1" parent="1" source="fQAuhInOKur0-kVgkFMw-15">
          <mxGeometry width="160" relative="1" as="geometry">
            <mxPoint x="130" y="215" as="sourcePoint" />
            <mxPoint x="230" y="149.5" as="targetPoint" />
          </mxGeometry>
        </mxCell>
        <mxCell id="fQAuhInOKur0-kVgkFMw-24" value="&lt;div&gt;&lt;b&gt;Authenticator&lt;/b&gt;&lt;/div&gt;" style="html=1;dropTarget=0;whiteSpace=wrap;rounded=0;" vertex="1" parent="1">
          <mxGeometry x="240" y="370" width="120" height="70" as="geometry" />
        </mxCell>
        <mxCell id="fQAuhInOKur0-kVgkFMw-25" value="" style="shape=module;jettyWidth=8;jettyHeight=4;rounded=0;" vertex="1" parent="fQAuhInOKur0-kVgkFMw-24">
          <mxGeometry x="1" width="20" height="20" relative="1" as="geometry">
            <mxPoint x="-27" y="7" as="offset" />
          </mxGeometry>
        </mxCell>
        <mxCell id="fQAuhInOKur0-kVgkFMw-31" style="edgeStyle=none;curved=1;rounded=0;orthogonalLoop=1;jettySize=auto;html=1;exitX=0;exitY=0.5;exitDx=0;exitDy=0;exitPerimeter=0;entryX=0.5;entryY=0;entryDx=0;entryDy=0;fontSize=12;startSize=8;endSize=8;endArrow=none;endFill=0;" edge="1" parent="1" source="fQAuhInOKur0-kVgkFMw-29" target="fQAuhInOKur0-kVgkFMw-24">
          <mxGeometry relative="1" as="geometry" />
        </mxCell>
        <mxCell id="fQAuhInOKur0-kVgkFMw-29" value="LogInManager" style="shape=providedRequiredInterface;html=1;verticalLabelPosition=top;sketch=0;rotation=-90;labelPosition=center;align=center;verticalAlign=bottom;horizontal=1;textDirection=vertical-lr;spacing=-15;" vertex="1" parent="1">
          <mxGeometry x="270" y="300" width="20" height="20" as="geometry" />
        </mxCell>
        <mxCell id="fQAuhInOKur0-kVgkFMw-32" style="edgeStyle=none;curved=1;rounded=0;orthogonalLoop=1;jettySize=auto;html=1;exitX=1;exitY=0.5;exitDx=0;exitDy=0;exitPerimeter=0;entryX=0.143;entryY=1;entryDx=0;entryDy=0;entryPerimeter=0;fontSize=12;startSize=8;endSize=8;endArrow=none;endFill=0;" edge="1" parent="1" source="fQAuhInOKur0-kVgkFMw-29" target="fQAuhInOKur0-kVgkFMw-20">
          <mxGeometry relative="1" as="geometry" />
        </mxCell>
        <mxCell id="fQAuhInOKur0-kVgkFMw-35" value="SignUpManager" style="shape=providedRequiredInterface;html=1;verticalLabelPosition=bottom;sketch=0;rotation=-90;horizontal=1;textDirection=vertical-lr;labelPosition=center;align=center;verticalAlign=top;spacing=0;" vertex="1" parent="1">
          <mxGeometry x="310" y="300" width="20" height="20" as="geometry" />
        </mxCell>
        <mxCell id="fQAuhInOKur0-kVgkFMw-36" style="edgeStyle=none;curved=1;rounded=0;orthogonalLoop=1;jettySize=auto;html=1;exitX=0.5;exitY=0;exitDx=0;exitDy=0;entryX=0;entryY=0.5;entryDx=0;entryDy=0;entryPerimeter=0;fontSize=12;startSize=8;endSize=8;endArrow=none;endFill=0;" edge="1" parent="1" source="fQAuhInOKur0-kVgkFMw-24" target="fQAuhInOKur0-kVgkFMw-35">
          <mxGeometry relative="1" as="geometry" />
        </mxCell>
        <mxCell id="fQAuhInOKur0-kVgkFMw-38" style="edgeStyle=none;curved=1;rounded=0;orthogonalLoop=1;jettySize=auto;html=1;exitX=1;exitY=0.5;exitDx=0;exitDy=0;exitPerimeter=0;entryX=0.14;entryY=1;entryDx=0;entryDy=0;entryPerimeter=0;fontSize=12;startSize=8;endSize=8;endArrow=none;endFill=0;" edge="1" parent="1" source="fQAuhInOKur0-kVgkFMw-35" target="fQAuhInOKur0-kVgkFMw-20">
          <mxGeometry relative="1" as="geometry" />
        </mxCell>
        <mxCell id="fQAuhInOKur0-kVgkFMw-40" value="&lt;div&gt;«table»&lt;b&gt;&lt;br&gt;&lt;/b&gt;&lt;/div&gt;&lt;div&gt;&lt;b&gt;DB Utenti&lt;/b&gt;&lt;/div&gt;" style="html=1;dropTarget=0;whiteSpace=wrap;rounded=0;" vertex="1" parent="1">
          <mxGeometry x="240" y="490" width="120" height="70" as="geometry" />
        </mxCell>
        <mxCell id="fQAuhInOKur0-kVgkFMw-41" value="" style="shape=module;jettyWidth=8;jettyHeight=4;rounded=0;" vertex="1" parent="fQAuhInOKur0-kVgkFMw-40">
          <mxGeometry x="1" width="20" height="20" relative="1" as="geometry">
            <mxPoint x="-27" y="7" as="offset" />
          </mxGeometry>
        </mxCell>
        <mxCell id="fQAuhInOKur0-kVgkFMw-43" value="Use" style="endArrow=open;endSize=12;dashed=1;html=1;rounded=0;fontSize=12;curved=1;exitX=0.5;exitY=1;exitDx=0;exitDy=0;entryX=0.5;entryY=0;entryDx=0;entryDy=0;" edge="1" parent="1" source="fQAuhInOKur0-kVgkFMw-24" target="fQAuhInOKur0-kVgkFMw-40">
          <mxGeometry width="160" relative="1" as="geometry">
            <mxPoint x="280" y="460" as="sourcePoint" />
            <mxPoint x="290" y="480" as="targetPoint" />
          </mxGeometry>
        </mxCell>
        <mxCell id="fQAuhInOKur0-kVgkFMw-44" value="&lt;div&gt;&lt;b&gt;Gestore Richieste&lt;/b&gt;&lt;/div&gt;" style="html=1;dropTarget=0;whiteSpace=wrap;rounded=0;" vertex="1" parent="1">
          <mxGeometry x="460" y="400" width="120" height="70" as="geometry" />
        </mxCell>
        <mxCell id="fQAuhInOKur0-kVgkFMw-45" value="" style="shape=module;jettyWidth=8;jettyHeight=4;rounded=0;" vertex="1" parent="fQAuhInOKur0-kVgkFMw-44">
          <mxGeometry x="1" width="20" height="20" relative="1" as="geometry">
            <mxPoint x="-27" y="7" as="offset" />
          </mxGeometry>
        </mxCell>
        <mxCell id="fQAuhInOKur0-kVgkFMw-46" value="&lt;div&gt;&lt;b&gt;Gestore Disponibilità&lt;/b&gt;&lt;/div&gt;" style="html=1;dropTarget=0;whiteSpace=wrap;rounded=0;" vertex="1" parent="1">
          <mxGeometry x="590" y="400" width="120" height="70" as="geometry" />
        </mxCell>
        <mxCell id="fQAuhInOKur0-kVgkFMw-47" value="" style="shape=module;jettyWidth=8;jettyHeight=4;rounded=0;" vertex="1" parent="fQAuhInOKur0-kVgkFMw-46">
          <mxGeometry x="1" width="20" height="20" relative="1" as="geometry">
            <mxPoint x="-27" y="7" as="offset" />
          </mxGeometry>
        </mxCell>
        <mxCell id="fQAuhInOKur0-kVgkFMw-48" style="edgeStyle=none;curved=1;rounded=0;orthogonalLoop=1;jettySize=auto;html=1;exitX=0;exitY=0.5;exitDx=0;exitDy=0;exitPerimeter=0;fontSize=12;startSize=8;endSize=8;" edge="1" parent="1" source="fQAuhInOKur0-kVgkFMw-35" target="fQAuhInOKur0-kVgkFMw-35">
          <mxGeometry relative="1" as="geometry" />
        </mxCell>
        <mxCell id="fQAuhInOKur0-kVgkFMw-55" style="edgeStyle=none;curved=1;rounded=0;orthogonalLoop=1;jettySize=auto;html=1;exitX=1;exitY=0.5;exitDx=0;exitDy=0;exitPerimeter=0;entryX=0.5;entryY=1;entryDx=0;entryDy=0;fontSize=12;startSize=8;endSize=8;endArrow=none;endFill=0;" edge="1" parent="1" source="fQAuhInOKur0-kVgkFMw-52" target="fQAuhInOKur0-kVgkFMw-3">
          <mxGeometry relative="1" as="geometry" />
        </mxCell>
        <mxCell id="fQAuhInOKur0-kVgkFMw-52" value="RequestManager" style="shape=providedRequiredInterface;html=1;verticalLabelPosition=bottom;sketch=0;rotation=-90;horizontal=1;textDirection=vertical-lr;labelPosition=center;align=center;verticalAlign=top;spacing=0;" vertex="1" parent="1">
          <mxGeometry x="460" y="300" width="20" height="20" as="geometry" />
        </mxCell>
        <mxCell id="fQAuhInOKur0-kVgkFMw-54" style="edgeStyle=none;curved=1;rounded=0;orthogonalLoop=1;jettySize=auto;html=1;exitX=0.5;exitY=0;exitDx=0;exitDy=0;entryX=0;entryY=0.5;entryDx=0;entryDy=0;entryPerimeter=0;fontSize=12;startSize=8;endSize=8;endArrow=none;endFill=0;" edge="1" parent="1" source="fQAuhInOKur0-kVgkFMw-44" target="fQAuhInOKur0-kVgkFMw-52">
          <mxGeometry relative="1" as="geometry" />
        </mxCell>
        <mxCell id="fQAuhInOKur0-kVgkFMw-59" style="edgeStyle=none;curved=1;rounded=0;orthogonalLoop=1;jettySize=auto;html=1;exitX=1;exitY=0.5;exitDx=0;exitDy=0;exitPerimeter=0;entryX=0.5;entryY=1;entryDx=0;entryDy=0;fontSize=12;startSize=8;endSize=8;endArrow=none;endFill=0;" edge="1" parent="1" source="fQAuhInOKur0-kVgkFMw-57" target="fQAuhInOKur0-kVgkFMw-5">
          <mxGeometry relative="1" as="geometry" />
        </mxCell>
        <mxCell id="fQAuhInOKur0-kVgkFMw-57" value="AvailabilityManager" style="shape=providedRequiredInterface;html=1;verticalLabelPosition=bottom;sketch=0;rotation=-90;horizontal=1;textDirection=vertical-lr;labelPosition=center;align=center;verticalAlign=top;spacing=0;" vertex="1" parent="1">
          <mxGeometry x="590" y="300" width="20" height="20" as="geometry" />
        </mxCell>
        <mxCell id="fQAuhInOKur0-kVgkFMw-58" style="edgeStyle=none;curved=1;rounded=0;orthogonalLoop=1;jettySize=auto;html=1;exitX=0.5;exitY=0;exitDx=0;exitDy=0;entryX=0;entryY=0.5;entryDx=0;entryDy=0;entryPerimeter=0;fontSize=12;startSize=8;endSize=8;endArrow=none;endFill=0;" edge="1" parent="1" source="fQAuhInOKur0-kVgkFMw-46" target="fQAuhInOKur0-kVgkFMw-57">
          <mxGeometry relative="1" as="geometry" />
        </mxCell>
        <mxCell id="fQAuhInOKur0-kVgkFMw-60" style="edgeStyle=none;curved=1;rounded=0;orthogonalLoop=1;jettySize=auto;html=1;exitX=0;exitY=0.5;exitDx=0;exitDy=0;exitPerimeter=0;fontSize=12;startSize=8;endSize=8;" edge="1" parent="1" source="fQAuhInOKur0-kVgkFMw-57" target="fQAuhInOKur0-kVgkFMw-57">
          <mxGeometry relative="1" as="geometry" />
        </mxCell>
        <mxCell id="fQAuhInOKur0-kVgkFMw-61" value="&lt;div&gt;«table»&lt;b&gt;&lt;br&gt;&lt;/b&gt;&lt;/div&gt;&lt;div&gt;&lt;b&gt;DB Aiuti&lt;/b&gt;&lt;/div&gt;" style="html=1;dropTarget=0;whiteSpace=wrap;rounded=0;" vertex="1" parent="1">
          <mxGeometry x="525" y="530" width="120" height="70" as="geometry" />
        </mxCell>
        <mxCell id="fQAuhInOKur0-kVgkFMw-62" value="" style="shape=module;jettyWidth=8;jettyHeight=4;rounded=0;" vertex="1" parent="fQAuhInOKur0-kVgkFMw-61">
          <mxGeometry x="1" width="20" height="20" relative="1" as="geometry">
            <mxPoint x="-27" y="7" as="offset" />
          </mxGeometry>
        </mxCell>
        <mxCell id="fQAuhInOKur0-kVgkFMw-63" value="Use" style="endArrow=open;endSize=12;dashed=1;html=1;rounded=0;fontSize=12;curved=1;exitX=0.5;exitY=1;exitDx=0;exitDy=0;entryX=0.5;entryY=0;entryDx=0;entryDy=0;" edge="1" parent="1" source="fQAuhInOKur0-kVgkFMw-49" target="fQAuhInOKur0-kVgkFMw-61">
          <mxGeometry width="160" relative="1" as="geometry">
            <mxPoint x="584.5" y="480" as="sourcePoint" />
            <mxPoint x="584.5" y="530" as="targetPoint" />
          </mxGeometry>
        </mxCell>
        <mxCell id="fQAuhInOKur0-kVgkFMw-64" value="NotificationService" style="shape=providedRequiredInterface;html=1;verticalLabelPosition=top;sketch=0;labelPosition=center;align=center;verticalAlign=bottom;" vertex="1" parent="1">
          <mxGeometry x="700" y="145" width="20" height="20" as="geometry" />
        </mxCell>
        <mxCell id="fQAuhInOKur0-kVgkFMw-65" style="edgeStyle=none;curved=1;rounded=0;orthogonalLoop=1;jettySize=auto;html=1;exitX=1;exitY=0.5;exitDx=0;exitDy=0;entryX=0;entryY=0.5;entryDx=0;entryDy=0;entryPerimeter=0;fontSize=12;startSize=8;endSize=8;endArrow=none;endFill=0;" edge="1" parent="1" source="fQAuhInOKur0-kVgkFMw-20" target="fQAuhInOKur0-kVgkFMw-64">
          <mxGeometry relative="1" as="geometry" />
        </mxCell>
        <mxCell id="fQAuhInOKur0-kVgkFMw-67" style="edgeStyle=orthogonalEdgeStyle;rounded=0;orthogonalLoop=1;jettySize=auto;html=1;exitX=1;exitY=0.5;exitDx=0;exitDy=0;entryX=1;entryY=0.5;entryDx=0;entryDy=0;entryPerimeter=0;fontSize=12;startSize=8;endSize=8;endArrow=none;endFill=0;" edge="1" parent="1" source="fQAuhInOKur0-kVgkFMw-49" target="fQAuhInOKur0-kVgkFMw-64">
          <mxGeometry relative="1" as="geometry" />
        </mxCell>
      </root>
    </mxGraphModel>
  </diagram>
</mxfile>
